#!OML:ASF X:\für Bonn\!DataBase\2005_08_10_Bjorn_Final\c3d\bjorn.ASF
:FULLY-SPECIFIED
:DEGREES
191
root 1.95169 18.7053 4.46602 -186.096 -8.26861 180.086
lowerback 2.81245 1.49102 -0.912944
upperback 10.1245 1.08883 -4.27715
thorax 9.18062 0.158127 -4.07085
lowerneck -0.876615 0.239426 -9.35385
upperneck 7.74763 -0.162085 8.45221
head 2.43364 -0.17519 4.08315
rclavicle -3.77691e-014 -1.59028e-014
rhumerus -42.3669 -2.72568 -86.8913
rradius 36.9768
rwrist 1.33003
rhand -17.0681 23.4461
rfingers 7.12502
rthumb 9.16959 -6.33457
lclavicle -3.77691e-014 -1.59028e-014
lhumerus -4.43709 -25.2148 41.4546
lradius 88.7636
lwrist 5.16918
lhand -48.2907 -18.2034
lfingers 7.12502
lthumb -20.9477 10.6854
rfemur -18.473 -1.21513 16.327
rtibia 40.9757
rfoot -16.2481 7.94825
rtoes -6.12427
lfemur -8.18371 -0.647591 -15.4996
ltibia 62.0921
lfoot -8.72163 5.45715
ltoes -25.9071
192
root 1.91168 18.7 4.53829 -185.182 -8.1633 179.902
lowerback 2.53482 1.39546 -1.099
upperback 9.97834 1.00443 -4.28932
thorax 9.16932 0.115265 -3.97728
lowerneck -1.01115 0.211321 -9.41657
upperneck 7.34091 -0.131215 8.31062
head 2.33414 -0.149868 4.04789
rclavicle 7.95139e-016 -6.36111e-015
rhumerus -42.4971 -3.912 -86.8544
rradius 36.8399
rwrist 1.37089
rhand -16.6312 23.4076
rfingers 7.12502
rthumb 9.59116 -6.35403
lclavicle 7.95139e-016 -6.36111e-015
lhumerus -5.89866 -25.3216 42.7997
lradius 87.5963
lwrist 5.36081
lhand -47.6698 -18.4141
lfingers 7.12502
lthumb -20.3511 10.5395
rfemur -19.9235 -0.916543 16.0116
rtibia 41.401
rfoot -16.1521 7.6526
rtoes -6.85783
lfemur -6.97942 -0.819627 -15.5536
ltibia 60.5142
lfoot -8.79308 6.46996
ltoes -26.8621
193
root 1.87132 18.6896 4.61057 -184.237 -8.05405 179.743
lowerback 2.19403 1.3048 -1.25897
upperback 9.86013 0.92728 -4.2931
thorax 9.2287 0.0775376 -3.89124
lowerneck -1.15971 0.169672 -9.42114
upperneck 6.85045 -0.113016 8.14447
head 2.2134 -0.127997 3.99477
rclavicle 1.43125e-014 7.95139e-015
rhumerus -42.5226 -5.11576 -86.7992
rradius 36.6487
rwrist 1.40935
rhand -16.1434 23.2179
rfingers 7.12502
rthumb 10.0618 -6.52153
lclavicle 1.43125e-014 7.95139e-015
lhumerus -7.28026 -25.3517 44.1251
lradius 86.3666
lwrist 5.3082
lhand -47.278 -18.5181
lfingers 7.12502
lthumb -19.9745 10.4753
rfemur -21.492 -0.626374 15.708
rtibia 41.9726
rfoot -16.1156 7.37543
rtoes -7.65043
lfemur -5.86993 -0.948817 -15.5969
ltibia 58.7731
lfoot -9.02387 7.41931
ltoes -28.0404
194
root 1.83092 18.6645 4.68416 -183.311 -7.92544 179.638
lowerback 1.84881 1.21535 -1.38257
upperback 9.75989 0.849598 -4.2587
thorax 9.31153 0.0408616 -3.78606
lowerneck -1.29648 0.123798 -9.46583
upperneck 6.29815 -0.0988628 7.9773
head 2.07281 -0.108545 3.94772
rclavicle 6.36111e-015 4.6118e-014
rhumerus -42.4348 -6.29809 -86.698
rradius 36.3885
rwrist 1.43989
rhand -15.656 22.9247
rfingers 7.12502
rthumb 10.532 -6.79146
lclavicle 6.36111e-015 4.6118e-014
lhumerus -8.67978 -25.3224 45.5088
lradius 85.1404
lwrist 5.10771
lhand -46.9734 -18.2869
lfingers 7.12502
lthumb -19.6817 10.7367
rfemur -23.1437 -0.397729 15.4502
rtibia 42.6839
rfoot -16.1057 7.16418
rtoes -8.43263
lfemur -4.73855 -1.00837 -15.5944
ltibia 56.8708
lfoot -9.47904 8.13127
ltoes -29.7795
195
root 1.78928 18.6269 4.75995 -182.42 -7.78834 179.549
lowerback 1.56556 1.1288 -1.49678
upperback 9.66763 0.76998 -4.20461
thorax 9.367 0.00187099 -3.66568
lowerneck -1.47713 0.0620285 -9.50116
upperneck 5.74569 -0.104441 7.78401
head 1.9411 -0.0986078 3.8911
rclavicle 2.06736e-014 5.08889e-014
rhumerus -42.3479 -7.39382 -86.5775
rradius 36.2196
rwrist 1.50079
rhand -15.1722 22.4432
rfingers 7.12502
rthumb 10.9986 -7.24863
lclavicle 2.06736e-014 5.08889e-014
lhumerus -10.0282 -25.2348 46.9284
lradius 83.8446
lwrist 4.82053
lhand -46.7256 -17.8241
lfingers 7.12502
lthumb -19.4434 11.2237
rfemur -24.8588 -0.191532 15.1882
rtibia 43.5437
rfoot -16.1119 7.02804
rtoes -9.14448
lfemur -3.63571 -1.00819 -15.6033
ltibia 54.8416
lfoot -10.1292 8.56245
ltoes -32.1169
196
root 1.74554 18.5862 4.83592 -181.566 -7.63345 179.449
lowerback 1.33893 1.04368 -1.59786
upperback 9.59816 0.68396 -4.16158
thorax 9.41555 -0.0416254 -3.56637
lowerneck -1.78555 0.00161132 -9.50579
upperneck 5.11415 -0.0789257 7.26038
head 2.00217 -0.0924943 4.13704
rclavicle 2.18663e-014 -1.27222e-014
rhumerus -42.1987 -8.39367 -86.5099
rradius 36.0469
rwrist 1.57654
rhand -14.818 21.9268
rfingers 7.12502
rthumb 11.3403 -7.74662
lclavicle 2.18663e-014 -1.27222e-014
lhumerus -11.2603 -25.0633 48.2969
lradius 82.433
lwrist 4.56853
lhand -46.4434 -17.2915
lfingers 7.12502
lthumb -19.1721 11.7835
rfemur -26.6018 -0.0473981 14.8998
rtibia 44.5369
rfoot -16.1702 7.02581
rtoes -9.60492
lfemur -2.71145 -0.893284 -15.6647
ltibia 52.7519
lfoot -10.9065 8.85595
ltoes -35.7538
197
root 1.702 18.531 4.91511 -180.734 -7.48557 179.339
lowerback 1.15445 0.962776 -1.71064
upperback 9.55026 0.597709 -4.11579
thorax 9.46368 -0.0885204 -3.45876
lowerneck -2.1442 -0.0607296 -9.43498
upperneck 4.685 -0.0868239 7.00371
head 1.92421 -0.0813 4.02799
rclavicle 1.59028e-015 -5.725e-014
rhumerus -42.0041 -9.34009 -86.4466
rradius 35.8639
rwrist 1.67032
rhand -14.5761 21.5014
rfingers 7.12502
rthumb 11.5736 -8.15905
lclavicle 1.59028e-015 -5.725e-014
lhumerus -12.3509 -24.7901 49.6434
lradius 80.9492
lwrist 4.29854
lhand -46.019 -16.6571
lfingers 7.12502
lthumb -18.764 12.4579
rfemur -28.4114 0.144153 14.5831
rtibia 45.6655
rfoot -16.2565 7.01316
rtoes -9.98933
lfemur -1.82627 -0.697285 -15.7438
ltibia 50.6484
lfoot -12.2845 8.85953
ltoes -39.0833
198
root 1.65922 18.4607 4.99906 -179.908 -7.35153 179.177
lowerback 1.03088 0.883285 -1.85854
upperback 9.5079 0.508614 -4.09872
thorax 9.48252 -0.140876 -3.36273
lowerneck -2.63768 -0.137186 -9.30763
upperneck 4.37672 -0.114265 6.75049
head 1.91268 -0.0802013 3.91207
rclavicle -1.03368e-014 0
rhumerus -41.8097 -10.3018 -86.4009
rradius 35.6689
rwrist 1.98645
rhand -14.5026 21.1551
rfingers 7.12502
rthumb 11.6444 -8.50135
lclavicle -1.03368e-014 0
lhumerus -13.3121 -24.4008 50.952
lradius 79.4125
lwrist 4.02551
lhand -45.4446 -15.8622
lfingers 7.12502
lthumb -18.2114 13.3053
rfemur -30.2928 0.396646 14.1864
rtibia 46.9063
rfoot -16.3694 7.01284
rtoes -10.3003
lfemur -1.03786 -0.401211 -15.8781
ltibia 48.5761
lfoot -13.831 8.62738
ltoes -41.5002
199
root 1.61644 18.3807 5.08507 -179.172 -7.23807 179.045
lowerback 1.01021 0.794104 -1.98136
upperback 9.50025 0.393032 -4.05736
thorax 9.4784 -0.208419 -3.25719
lowerneck -3.28137 -0.216571 -9.18602
upperneck 4.24672 -0.141437 6.46003
head 1.98755 -0.0821523 3.78852
rclavicle 2.8625e-014 4.92986e-014
rhumerus -41.603 -11.2004 -86.3341
rradius 35.4296
rwrist 2.40536
rhand -14.5335 20.9354
rfingers 7.12502
rthumb 11.6147 -8.72273
lclavicle 2.8625e-014 4.92986e-014
lhumerus -14.1639 -23.9295 52.2451
lradius 77.7594
lwrist 3.54023
lhand -44.9671 -14.719
lfingers 7.12502
lthumb -17.752 14.4907
rfemur -32.1423 0.644274 13.8071
rtibia 48.2429
rfoot -16.504 7.03186
rtoes -10.3544
lfemur -0.290902 -0.0819928 -15.9826
ltibia 46.5764
lfoot -15.4598 8.09
ltoes -42.2421
200
root 1.57438 18.2939 5.17154 -178.649 -7.11108 178.788
lowerback 1.22565 0.744795 -2.1936
upperback 9.56609 0.302311 -4.07037
thorax 9.41818 -0.280107 -3.15926
lowerneck -3.99049 -0.30245 -9.0266
upperneck 4.20728 -0.181256 6.18266
head 2.10532 -0.0919424 3.66444
rclavicle 3.22031e-014 6.67916e-014
rhumerus -41.351 -12.1014 -86.3049
rradius 35.1451
rwrist 2.8745
rhand -14.5907 20.6942
rfingers 7.12502
rthumb 11.5595 -8.96704
lclavicle 3.22031e-014 6.67916e-014
lhumerus -14.8641 -23.5036 53.3784
lradius 76.0024
lwrist 2.88346
lhand -44.6982 -13.2964
lfingers 7.12502
lthumb -17.4932 15.9366
rfemur -33.7659 0.885622 13.28
rtibia 49.6156
rfoot -16.6617 7.1356
rtoes -10.3887
lfemur 0.543241 0.290174 -16.2331
ltibia 44.7086
lfoot -17.2113 7.42062
ltoes -42.3794
201
root 1.53121 18.2035 5.2562 -178.318 -6.97156 178.325
lowerback 1.63496 0.716333 -2.60676
upperback 9.72114 0.211022 -4.12149
thorax 9.34291 -0.379605 -2.99186
lowerneck -4.62157 -0.363452 -8.90993
upperneck 4.03525 -0.191274 5.90942
head 2.1622 -0.0882158 3.54897
rclavicle 1.19271e-014 3.33958e-014
rhumerus -40.9516 -12.912 -86.2859
rradius 34.6776
rwrist 3.40842
rhand -14.7528 20.5272
rfingers 7.12502
rthumb 11.4032 -9.14274
lclavicle 1.19271e-014 3.33958e-014
lhumerus -15.4686 -23.0513 54.4612
lradius 74.2047
lwrist 2.47835
lhand -44.3905 -12.3381
lfingers 7.12502
lthumb -17.1971 16.9209
rfemur -35.1443 1.00533 12.531
rtibia 50.972
rfoot -16.8009 7.35118
rtoes -10.504
lfemur 1.40198 0.766518 -16.7031
ltibia 43.0559
lfoot -19.1405 6.69803
ltoes -42.242
